<svg width="100" height="100" viewBox="0 0 100 100" xmlns="http://www.w3.org/2000/svg">
  <!-- Background block with gradient -->
  <defs>
    <linearGradient id="bgGradient" x1="0%" y1="0%" x2="100%" y2="100%">
      <stop offset="0%" style="stop-color:#a855f7;stop-opacity:1" />
      <stop offset="100%" style="stop-color:#7c3aed;stop-opacity:1" />
    </linearGradient>
  </defs>
  
  <rect x="8" y="8" width="84" height="84" rx="18" fill="url(#bgGradient)"/>
  
  <!-- T - Light purple, clean horizontal bar behind P -->
  <rect x="22" y="25" width="64" height="8" fill="#c4b5fd"/>
  <!-- T vertical stem -->
  <rect x="65" y="33" width="8" height="42" fill="#c4b5fd"/>
  
  <!-- P - White, better proportions -->
  <path d="M22 25 L22 75 L30 75 L30 56 L45 56 C52 56 58 50 58 43 L58 38 C58 31 52 25 45 25 L22 25 Z M30 33 L45 33 C47.5 33 50 35.5 50 38 L50 43 C50 45.5 47.5 48 45 48 L30 48 Z" fill="#ffffff"/>
</svg>